<svg xmlns="http://www.w3.org/2000/svg" width="256" height="256" viewBox="0 0 100 100"><rect width="100" height="100" rx="20" fill="#0b0050"></rect><path d="M63.73 49.64L63.73 49.64Q63.73 44.33 62.20 40.51Q60.67 36.68 57.97 34.25Q55.27 31.82 51.67 30.65Q48.07 29.48 43.93 29.48L43.93 29.48Q39.16 29.48 36.01 30.11L36.01 30.11L36.01 69.80Q37.81 70.25 40.01 70.39Q42.22 70.52 44.47 70.52L44.47 70.52Q53.83 70.52 58.78 65.25Q63.73 59.99 63.73 49.64ZM73.63 49.55L73.63 49.55Q73.63 56.84 71.56 62.28Q69.48 67.73 65.66 71.33Q61.84 74.93 56.44 76.69Q51.04 78.44 44.47 78.44L44.47 78.44Q41.59 78.44 37.72 78.17Q33.85 77.90 30.52 76.82L30.52 76.82Q26.38 75.47 26.38 71.96L26.38 71.96L26.38 26.87Q26.38 25.34 27.23 24.48Q28.09 23.63 29.62 23.18L29.62 23.18Q32.77 22.19 36.46 21.88Q40.15 21.56 43.66 21.56L43.66 21.56Q50.32 21.56 55.85 23.27Q61.39 24.98 65.34 28.49Q69.31 32 71.47 37.27Q73.63 42.53 73.63 49.55Z" fill="#fff"></path></svg>